<?xml version="1.0" encoding="UTF-8" standalone="no"?>
<!-- Generator: Adobe Illustrator 19.2.1, SVG Export Plug-In . SVG Version: 6.00 Build 0)  -->

<svg
   height="675"
   width="1200"
   inkscape:version="1.2.2 (732a01da63, 2022-12-09)"
   sodipodi:docname="first-level.svg"
   xml:space="preserve"
   viewBox="0 0 1200 675"
   y="0px"
   x="0px"
   id="Layer_1"
   version="1.1"
   xmlns:inkscape="http://www.inkscape.org/namespaces/inkscape"
   xmlns:sodipodi="http://sodipodi.sourceforge.net/DTD/sodipodi-0.dtd"
   xmlns="http://www.w3.org/2000/svg"
   xmlns:svg="http://www.w3.org/2000/svg"><defs
   id="defs77"><clipPath
     clipPathUnits="userSpaceOnUse"
     id="clipPath93741"><rect
       style="opacity:1;fill:#ff3333;fill-opacity:0.38785;stroke:none;stroke-width:1.99999;stroke-linecap:round;stroke-linejoin:round;stroke-miterlimit:4;stroke-dasharray:none;stroke-opacity:0.909804;paint-order:stroke fill markers"
       id="rect93743"
       width="1200"
       height="800"
       x="4.6406132e-07"
       y="8.9359952e-07"
       transform="rotate(-90)" /></clipPath><clipPath
     clipPathUnits="userSpaceOnUse"
     id="clipPath93745"><rect
       style="opacity:1;fill:#ff3333;fill-opacity:0.38785;stroke:none;stroke-width:1.99999;stroke-linecap:round;stroke-linejoin:round;stroke-miterlimit:4;stroke-dasharray:none;stroke-opacity:0.909804;paint-order:stroke fill markers"
       id="rect93747"
       width="1200"
       height="800"
       x="4.6406132e-07"
       y="8.9359952e-07" /></clipPath><clipPath
     clipPathUnits="userSpaceOnUse"
     id="clipPath93749"><rect
       style="opacity:1;fill:#ff3333;fill-opacity:0.38785;stroke:none;stroke-width:1.99999;stroke-linecap:round;stroke-linejoin:round;stroke-miterlimit:4;stroke-dasharray:none;stroke-opacity:0.909804;paint-order:stroke fill markers"
       id="rect93751"
       width="1200"
       height="800"
       x="4.6406132e-07"
       y="8.9359952e-07" /></clipPath><clipPath
     clipPathUnits="userSpaceOnUse"
     id="clipPath93753"><rect
       style="opacity:1;fill:#ff3333;fill-opacity:0.38785;stroke:none;stroke-width:1.99999;stroke-linecap:round;stroke-linejoin:round;stroke-miterlimit:4;stroke-dasharray:none;stroke-opacity:0.909804;paint-order:stroke fill markers"
       id="rect93755"
       width="1200"
       height="800"
       x="4.6406132e-07"
       y="8.9359952e-07" /></clipPath><clipPath
     clipPathUnits="userSpaceOnUse"
     id="clipPath93757"><rect
       style="opacity:1;fill:#ff3333;fill-opacity:0.38785;stroke:none;stroke-width:1.99999;stroke-linecap:round;stroke-linejoin:round;stroke-miterlimit:4;stroke-dasharray:none;stroke-opacity:0.909804;paint-order:stroke fill markers"
       id="rect93759"
       width="1200"
       height="800"
       x="4.6406132e-07"
       y="8.9359952e-07"
       transform="rotate(-88.018193)" /></clipPath><clipPath
     clipPathUnits="userSpaceOnUse"
     id="clipPath93761"><rect
       style="opacity:1;fill:#ff3333;fill-opacity:0.38785;stroke:none;stroke-width:1.99999;stroke-linecap:round;stroke-linejoin:round;stroke-miterlimit:4;stroke-dasharray:none;stroke-opacity:0.909804;paint-order:stroke fill markers"
       id="rect93763"
       width="1200"
       height="800"
       x="4.6406132e-07"
       y="8.9359952e-07" /></clipPath><clipPath
     clipPathUnits="userSpaceOnUse"
     id="clipPath93765"><rect
       style="opacity:1;fill:#ff3333;fill-opacity:0.38785;stroke:none;stroke-width:1.99999;stroke-linecap:round;stroke-linejoin:round;stroke-miterlimit:4;stroke-dasharray:none;stroke-opacity:0.909804;paint-order:stroke fill markers"
       id="rect93767"
       width="1200"
       height="800"
       x="4.6406132e-07"
       y="8.9359952e-07" /></clipPath><clipPath
     clipPathUnits="userSpaceOnUse"
     id="clipPath93769"><rect
       style="opacity:1;fill:#ff3333;fill-opacity:0.38785;stroke:none;stroke-width:1.99999;stroke-linecap:round;stroke-linejoin:round;stroke-miterlimit:4;stroke-dasharray:none;stroke-opacity:0.909804;paint-order:stroke fill markers"
       id="rect93771"
       width="1200"
       height="800"
       x="4.6406132e-07"
       y="8.9359952e-07"
       transform="rotate(-90)" /></clipPath><clipPath
     clipPathUnits="userSpaceOnUse"
     id="clipPath93773"><rect
       style="opacity:1;fill:#ff3333;fill-opacity:0.38785;stroke:none;stroke-width:1.99999;stroke-linecap:round;stroke-linejoin:round;stroke-miterlimit:4;stroke-dasharray:none;stroke-opacity:0.909804;paint-order:stroke fill markers"
       id="rect93775"
       width="1200"
       height="800"
       x="4.6406132e-07"
       y="8.9359952e-07" /></clipPath><clipPath
     clipPathUnits="userSpaceOnUse"
     id="clipPath93777"><rect
       style="opacity:1;fill:#ff3333;fill-opacity:0.38785;stroke:none;stroke-width:1.99999;stroke-linecap:round;stroke-linejoin:round;stroke-miterlimit:4;stroke-dasharray:none;stroke-opacity:0.909804;paint-order:stroke fill markers"
       id="rect93779"
       width="1200"
       height="800"
       x="4.6406132e-07"
       y="8.9359952e-07" /></clipPath><clipPath
     clipPathUnits="userSpaceOnUse"
     id="clipPath93781"><rect
       style="opacity:1;fill:#ff3333;fill-opacity:0.38785;stroke:none;stroke-width:1.99999;stroke-linecap:round;stroke-linejoin:round;stroke-miterlimit:4;stroke-dasharray:none;stroke-opacity:0.909804;paint-order:stroke fill markers"
       id="rect93783"
       width="1200"
       height="800"
       x="4.6406132e-07"
       y="8.9359952e-07" /></clipPath><clipPath
     clipPathUnits="userSpaceOnUse"
     id="clipPath93785"><rect
       style="opacity:1;fill:#ff3333;fill-opacity:0.38785;stroke:none;stroke-width:1.99999;stroke-linecap:round;stroke-linejoin:round;stroke-miterlimit:4;stroke-dasharray:none;stroke-opacity:0.909804;paint-order:stroke fill markers"
       id="rect93787"
       width="1200"
       height="800"
       x="4.6406132e-07"
       y="8.9359952e-07" /></clipPath><clipPath
     clipPathUnits="userSpaceOnUse"
     id="clipPath93789"><rect
       style="opacity:1;fill:#ff3333;fill-opacity:0.38785;stroke:none;stroke-width:1.99999;stroke-linecap:round;stroke-linejoin:round;stroke-miterlimit:4;stroke-dasharray:none;stroke-opacity:0.909804;paint-order:stroke fill markers"
       id="rect93791"
       width="1200"
       height="800"
       x="4.6406132e-07"
       y="8.9359952e-07" /></clipPath><clipPath
     clipPathUnits="userSpaceOnUse"
     id="clipPath93793"><rect
       style="opacity:1;fill:#ff3333;fill-opacity:0.38785;stroke:none;stroke-width:1.99999;stroke-linecap:round;stroke-linejoin:round;stroke-miterlimit:4;stroke-dasharray:none;stroke-opacity:0.909804;paint-order:stroke fill markers"
       id="rect93795"
       width="1200"
       height="800"
       x="4.6406132e-07"
       y="8.9359952e-07" /></clipPath><clipPath
     clipPathUnits="userSpaceOnUse"
     id="clipPath93797"><rect
       style="opacity:1;fill:#ff3333;fill-opacity:0.38785;stroke:none;stroke-width:1.99999;stroke-linecap:round;stroke-linejoin:round;stroke-miterlimit:4;stroke-dasharray:none;stroke-opacity:0.909804;paint-order:stroke fill markers"
       id="rect93799"
       width="1200"
       height="800"
       x="4.6406132e-07"
       y="8.9359952e-07" /></clipPath><clipPath
     clipPathUnits="userSpaceOnUse"
     id="clipPath93801"><rect
       style="opacity:1;fill:#ff3333;fill-opacity:0.38785;stroke:none;stroke-width:1.99999;stroke-linecap:round;stroke-linejoin:round;stroke-miterlimit:4;stroke-dasharray:none;stroke-opacity:0.909804;paint-order:stroke fill markers"
       id="rect93803"
       width="1200"
       height="800"
       x="4.6406132e-07"
       y="8.9359952e-07" /></clipPath><clipPath
     clipPathUnits="userSpaceOnUse"
     id="clipPath93805"><rect
       style="opacity:1;fill:#ff3333;fill-opacity:0.38785;stroke:none;stroke-width:1.99999;stroke-linecap:round;stroke-linejoin:round;stroke-miterlimit:4;stroke-dasharray:none;stroke-opacity:0.909804;paint-order:stroke fill markers"
       id="rect93807"
       width="1200"
       height="800"
       x="4.6406132e-07"
       y="8.9359952e-07" /></clipPath><clipPath
     clipPathUnits="userSpaceOnUse"
     id="clipPath93809"><rect
       style="opacity:1;fill:#ff3333;fill-opacity:0.38785;stroke:none;stroke-width:1.99999;stroke-linecap:round;stroke-linejoin:round;stroke-miterlimit:4;stroke-dasharray:none;stroke-opacity:0.909804;paint-order:stroke fill markers"
       id="rect93811"
       width="1200"
       height="800"
       x="4.6406132e-07"
       y="8.9359952e-07" /></clipPath><clipPath
     clipPathUnits="userSpaceOnUse"
     id="clipPath93813"><rect
       style="opacity:1;fill:#ff3333;fill-opacity:0.38785;stroke:none;stroke-width:1.99999;stroke-linecap:round;stroke-linejoin:round;stroke-miterlimit:4;stroke-dasharray:none;stroke-opacity:0.909804;paint-order:stroke fill markers"
       id="rect93815"
       width="1200"
       height="800"
       x="4.6406132e-07"
       y="8.9359952e-07" /></clipPath><clipPath
     clipPathUnits="userSpaceOnUse"
     id="clipPath93817"><rect
       style="opacity:1;fill:#ff3333;fill-opacity:0.38785;stroke:none;stroke-width:1.99999;stroke-linecap:round;stroke-linejoin:round;stroke-miterlimit:4;stroke-dasharray:none;stroke-opacity:0.909804;paint-order:stroke fill markers"
       id="rect93819"
       width="1200"
       height="800"
       x="4.6406132e-07"
       y="8.9359952e-07" /></clipPath><clipPath
     clipPathUnits="userSpaceOnUse"
     id="clipPath93821"><rect
       style="opacity:1;fill:#ff3333;fill-opacity:0.38785;stroke:none;stroke-width:1.99999;stroke-linecap:round;stroke-linejoin:round;stroke-miterlimit:4;stroke-dasharray:none;stroke-opacity:0.909804;paint-order:stroke fill markers"
       id="rect93823"
       width="1200"
       height="800"
       x="4.6406132e-07"
       y="8.9359952e-07" /></clipPath><clipPath
     clipPathUnits="userSpaceOnUse"
     id="clipPath93825"><rect
       style="opacity:1;fill:#ff3333;fill-opacity:0.38785;stroke:none;stroke-width:1.99999;stroke-linecap:round;stroke-linejoin:round;stroke-miterlimit:4;stroke-dasharray:none;stroke-opacity:0.909804;paint-order:stroke fill markers"
       id="rect93827"
       width="1200"
       height="800"
       x="4.6406132e-07"
       y="8.9359952e-07" /></clipPath><clipPath
     clipPathUnits="userSpaceOnUse"
     id="clipPath93829"><rect
       style="opacity:1;fill:#ff3333;fill-opacity:0.38785;stroke:none;stroke-width:1.99999;stroke-linecap:round;stroke-linejoin:round;stroke-miterlimit:4;stroke-dasharray:none;stroke-opacity:0.909804;paint-order:stroke fill markers"
       id="rect93831"
       width="1200"
       height="800"
       x="4.6406132e-07"
       y="8.9359952e-07" /></clipPath><clipPath
     clipPathUnits="userSpaceOnUse"
     id="clipPath93833"><rect
       style="opacity:1;fill:#ff3333;fill-opacity:0.38785;stroke:none;stroke-width:1.99999;stroke-linecap:round;stroke-linejoin:round;stroke-miterlimit:4;stroke-dasharray:none;stroke-opacity:0.909804;paint-order:stroke fill markers"
       id="rect93835"
       width="1200"
       height="800"
       x="4.6406132e-07"
       y="8.9359952e-07" /></clipPath></defs><sodipodi:namedview
   id="namedview75"
   pagecolor="#ffffff"
   bordercolor="#666666"
   borderopacity="1.0"
   inkscape:pageshadow="2"
   inkscape:pageopacity="0.0"
   inkscape:pagecheckerboard="0"
   showgrid="false"
   inkscape:object-nodes="false"
   inkscape:snap-nodes="true"
   inkscape:snap-others="false"
   inkscape:zoom="0.93125"
   inkscape:cx="814.49664"
   inkscape:cy="502.55034"
   inkscape:window-width="2560"
   inkscape:window-height="1377"
   inkscape:window-x="1912"
   inkscape:window-y="-8"
   inkscape:window-maximized="1"
   inkscape:current-layer="layer2"
   inkscape:snap-intersection-paths="false"
   showguides="false"
   inkscape:showpageshadow="2"
   inkscape:deskcolor="#d1d1d1" />
<style
   type="text/css"
   id="style2">
	.st0{fill:#DCDBDB;}
	.st1{fill:none;stroke:#FFFFFF;stroke-width:20;}
	.st2{fill:#BCBCBC;}
	.st3{fill:#A5D5A1;}
	.st4{fill:#9BD9E3;}
	.st5{fill:#636363;}
</style>


























<g
   inkscape:groupmode="layer"
   id="layer2"
   inkscape:label="Objects layer"
   style="display:inline"><circle
     style="fill:#fffbf0;fill-opacity:1;stroke:#faedca;stroke-width:8;stroke-linecap:round;stroke-linejoin:round;stroke-opacity:1;paint-order:stroke fill markers"
     id="path1043"
     cx="512.09985"
     cy="984.82416"
     r="22.77928"
     clip-path="url(#clipPath93829)" /><circle
     style="fill:#ffffff;fill-opacity:1;stroke:#dbdde1;stroke-width:8;stroke-linecap:round;stroke-linejoin:round;stroke-opacity:1;paint-order:stroke fill markers"
     id="path1043-3"
     cx="569.59039"
     cy="984.82416"
     r="22.77928"
     clip-path="url(#clipPath93825)" /><circle
     style="fill:#f8f9fa;fill-opacity:1;stroke:#dee0e4;stroke-width:8;stroke-linecap:round;stroke-linejoin:round;stroke-opacity:1;paint-order:stroke fill markers"
     id="path1043-3-7"
     cx="627.08093"
     cy="984.82416"
     r="22.77928"
     clip-path="url(#clipPath93821)" /><circle
     style="fill:#78909c;fill-opacity:1;stroke:#6e8895;stroke-width:8;stroke-linecap:round;stroke-linejoin:round;stroke-opacity:1;paint-order:stroke fill markers"
     id="path1043-3-7-7"
     cx="684.57153"
     cy="984.82416"
     r="22.77928"
     clip-path="url(#clipPath93817)" /><circle
     style="fill:#87c798;fill-opacity:1;stroke:#87c798;stroke-width:8;stroke-linecap:round;stroke-linejoin:round;stroke-opacity:1;paint-order:stroke fill markers"
     id="path1043-1"
     cx="512.09985"
     cy="1053.162"
     r="22.77928"
     clip-path="url(#clipPath93813)" /><rect
     style="fill:#c7c9d0;fill-opacity:1;stroke:none;stroke-width:3.75576;stroke-linecap:round;stroke-linejoin:round;stroke-opacity:1;paint-order:stroke fill markers"
     id="rect48859"
     width="590.74274"
     height="302.20517"
     x="297.64923"
     y="246.0162"
     clip-path="url(#clipPath93809)"
     transform="matrix(2.0313411,0,0,2.2335819,-604.62712,-549.49734)" /><g
     id="g4409"
     transform="translate(20.75005,-38.578411)"><circle
       style="fill:#a5d5a1;fill-opacity:1;stroke-width:2;stroke-linecap:round;stroke-linejoin:round;stroke-opacity:0.909804;paint-order:stroke fill markers"
       id="path2913"
       cx="305.38129"
       cy="843.99652"
       r="41.762012" /><circle
       style="display:inline;fill:#e0e1e5;fill-opacity:1;stroke-width:2;stroke-linecap:round;stroke-linejoin:round;stroke-opacity:0.909804;paint-order:stroke fill markers"
       id="path2913-1"
       cx="453.63641"
       cy="843.99652"
       r="41.762012" /><circle
       style="display:inline;fill:#fffbf0;fill-opacity:1;stroke:#e0e1e5;stroke-width:2;stroke-linecap:round;stroke-linejoin:round;stroke-opacity:1;paint-order:stroke fill markers"
       id="path2913-8"
       cx="601.89154"
       cy="843.99652"
       r="41.762012" /><circle
       style="display:inline;fill:#f0f0f0;fill-opacity:1;stroke:#e0e1e5;stroke-width:2;stroke-linecap:round;stroke-linejoin:round;stroke-opacity:1;paint-order:stroke fill markers"
       id="path2913-9"
       cx="750.14667"
       cy="843.99652"
       r="41.762012" /><circle
       style="display:inline;fill:#ffffff;fill-opacity:1;stroke:#e0e1e5;stroke-width:2;stroke-linecap:round;stroke-linejoin:round;stroke-opacity:1;paint-order:stroke fill markers"
       id="path2913-2"
       cx="898.40179"
       cy="843.99652"
       r="41.762012" /></g><rect
     style="fill:#808080;stroke:none;stroke-width:0.953019"
     id="rect222"
     width="10.782956"
     height="585.85858"
     x="252.22255"
     y="2.2238801e-06" /><rect
     style="display:inline;fill:#808080;stroke:none;stroke-width:0.710278"
     id="rect222-1"
     width="10.782956"
     height="325.4212"
     x="495.39844"
     y="260.43738" /><rect
     style="display:inline;fill:#808080;stroke:none;stroke-width:0.753273"
     id="rect222-0"
     width="10.782956"
     height="366.01218"
     x="416.62192"
     y="-1200"
     transform="rotate(90)" /><rect
     style="display:inline;fill:#808080;stroke:none;stroke-width:0.512215"
     id="rect222-0-3"
     width="10.782956"
     height="169.23666"
     x="-844.77075"
     y="-585.85858"
     transform="scale(-1)" /><path
     id="path330"
     style="fill:#999999;fill-opacity:1;stroke:none;stroke-opacity:1"
     d="m 451.40206,70.520075 a 27.379816,42.948732 89.517785 0 1 -36.86604,13.77639 27.379816,42.948732 89.517785 0 1 -36.6492,-12.69739 55.302,55.302 0 0 0 -10.98468,13.78086 55.302,55.302 0 0 0 -5.86985,16.619245 42.94883,27.379879 58.906622 0 1 7.72921,2.66667 42.94883,27.379879 58.906622 0 1 22.55059,21.86395 42.94883,27.379879 58.906622 0 1 7.54162,38.33105 55.302,55.302 0 0 0 34.33068,-0.37552 27.379757,42.948639 30.427967 0 1 -0.004,-0.0203 27.379757,42.948639 30.427967 0 1 -1.22153,-5.42531 27.379757,42.948639 30.427967 0 1 -0.0764,-0.6878 27.379757,42.948639 30.427967 0 1 -0.24846,-5.32348 27.379757,42.948639 30.427967 0 1 0.0359,-1.14812 27.379757,42.948639 30.427967 0 1 0.55192,-5.29282 27.379757,42.948639 30.427967 0 1 0.22518,-1.40494 27.379757,42.948639 30.427967 0 1 1.27452,-5.28297 27.379757,42.948639 30.427967 0 1 0.43109,-1.53867 27.379757,42.948639 30.427967 0 1 2.01296,-5.37822 27.379757,42.948639 30.427967 0 1 0.53748,-1.34791 27.379757,42.948639 30.427967 0 1 3.31913,-6.48526 27.379757,42.948639 30.427967 0 1 4.49406,-6.60649 27.379757,42.948639 30.427967 0 1 1.04631,-1.28685 27.379757,42.948639 30.427967 0 1 4.32172,-4.84172 27.379757,42.948639 30.427967 0 1 0.99136,-0.98233 27.379757,42.948639 30.427967 0 1 18.42106,-10.99292 27.379757,42.948639 30.427967 0 1 0.003,-7.6e-4 55.302,55.302 0 0 0 -17.89684,-29.918385 z" /><path
     id="path330-0"
     style="display:inline;fill:#999999;fill-opacity:1;stroke:none;stroke-opacity:1"
     d="m 673.46749,112.65998 a 42.948732,27.379816 40.105515 0 1 -36.95955,-13.523532 42.948732,27.379816 40.105515 0 1 -19.57072,-33.48693 55.302,55.302 0 0 0 -17.30787,3.318572 55.302,55.302 0 0 0 -15.2703,8.801843 27.379879,42.94883 9.4943525 0 1 4.13467,7.053811 27.379879,42.94883 9.4943525 0 1 2.90022,31.275386 27.379879,42.94883 9.4943525 0 1 -19.21144,34.01568 55.302,55.302 0 0 0 26.3154,22.05076 27.379757,42.948639 71.015697 0 1 0.0102,-0.018 27.379757,42.948639 71.015697 0 1 2.60213,-4.91478 27.379757,42.948639 71.015697 0 1 0.38947,-0.57203 27.379757,42.948639 71.015697 0 1 3.27484,-4.20435 27.379757,42.948639 71.015697 0 1 0.77424,-0.84854 27.379757,42.948639 71.015697 0 1 3.8627,-3.66034 27.379757,42.948639 71.015697 0 1 1.08508,-0.92042 27.379757,42.948639 71.015697 0 1 4.40504,-3.18273 27.379757,42.948639 71.015697 0 1 1.32845,-0.88801 27.379757,42.948639 71.015697 0 1 5.0278,-2.77462 27.379757,42.948639 71.015697 0 1 1.28513,-0.67393 27.379757,42.948639 71.015697 0 1 6.73997,-2.76551 27.379757,42.948639 71.015697 0 1 7.7111,-2.09315 27.379757,42.948639 71.015697 0 1 1.63182,-0.2965 27.379757,42.948639 71.015697 0 1 6.43204,-0.8651 27.379757,42.948639 71.015697 0 1 1.39196,-0.101 27.379757,42.948639 71.015697 0 1 21.14127,3.63682 27.379757,42.948639 71.015697 0 1 0.003,0.001 55.302,55.302 0 0 0 5.87421,-34.36424 z" /><path
     id="path330-0-4"
     style="display:inline;fill:#999999;fill-opacity:1;stroke:none;stroke-opacity:1"
     d="m 876.46994,99.798587 a 42.948732,27.379816 28.653816 0 1 -38.90876,-5.916306 42.948732,27.379816 28.653816 0 1 -25.82967,-28.934678 55.302,55.302 0 0 0 -16.30444,6.688842 55.302,55.302 0 0 0 -13.21877,11.658415 42.94883,27.379879 88.042653 0 1 5.45284,6.09248 42.94883,27.379879 88.042653 0 1 9.05196,30.07696 42.94883,27.379879 88.042653 0 1 -12.07545,37.15277 55.302,55.302 0 0 0 30.16952,16.38708 27.379757,42.948639 59.563998 0 1 0.006,-0.0197 27.379757,42.948639 59.563998 0 1 1.57454,-5.33356 27.379757,42.948639 59.563998 0 1 0.26814,-0.63797 27.379757,42.948639 59.563998 0 1 2.3749,-4.77085 27.379757,42.948639 59.563998 0 1 0.59036,-0.98537 27.379757,42.948639 59.563998 0 1 3.05908,-4.35438 27.379757,42.948639 59.563998 0 1 0.88073,-1.11753 27.379757,42.948639 59.563998 0 1 3.68545,-3.99395 27.379757,42.948639 59.563998 0 1 1.1257,-1.13408 27.379757,42.948639 59.563998 0 1 4.37682,-3.71762 27.379757,42.948639 59.563998 0 1 1.12575,-0.91566 27.379757,42.948639 59.563998 0 1 6.05672,-4.04861 27.379757,42.948639 59.563998 0 1 7.14201,-3.58246 27.379757,42.948639 59.563998 0 1 1.54046,-0.61459 27.379757,42.948639 59.563998 0 1 6.13224,-2.1249 27.379757,42.948639 59.563998 0 1 1.3442,-0.37535 27.379757,42.948639 59.563998 0 1 21.44246,-0.63301 27.379757,42.948639 59.563998 0 1 0.003,7.9e-4 55.302,55.302 0 0 0 -1.06548,-34.846403 z" /><path
     id="path330-0-4-0"
     style="display:inline;fill:#999999;fill-opacity:1;stroke:none;stroke-opacity:1"
     d="m 1080.7035,81.8989 a 42.948732,27.379816 11.502695 0 1 -38.9233,5.820727 42.948732,27.379816 11.502695 0 1 -33.2136,-20.030998 55.302,55.302 0 0 0 -13.6069,11.199478 55.302,55.302 0 0 0 -9.193,15.038083 42.94883,27.379879 70.891532 0 1 7.007,4.213538 42.94883,27.379879 70.891532 0 1 17.519,26.070072 42.94883,27.379879 70.891532 0 1 -0.5824,39.06158 55.302,55.302 0 0 0 33.6603,6.76158 27.379757,42.948639 42.412877 0 1 0,-0.0218 27.379757,42.948639 42.412877 0 1 -0.068,-5.56071 27.379757,42.948639 42.412877 0 1 0.068,-0.6887 27.379757,42.948639 42.412877 0 1 0.8625,-5.25902 27.379757,42.948639 42.412877 0 1 0.2736,-1.11564 27.379757,42.948639 42.412877 0 1 1.6389,-5.06286 27.379757,42.948639 42.412877 0 1 0.512,-1.32755 27.379757,42.948639 42.412877 0 1 2.3438,-4.90313 27.379757,42.948639 42.412877 0 1 0.7412,-1.4156 27.379757,42.948639 42.412877 0 1 3.086,-4.84302 27.379757,42.948639 42.412877 0 1 0.8055,-1.20691 27.379757,42.948639 42.412877 0 1 4.5935,-5.65464 27.379757,42.948639 42.412877 0 1 5.768,-5.52928 27.379757,42.948639 42.412877 0 1 1.2908,-1.04154 27.379757,42.948639 42.412877 0 1 5.2328,-3.83875 27.379757,42.948639 42.412877 0 1 1.1737,-0.75506 27.379757,42.948639 42.412877 0 1 20.3023,-6.9281 27.379757,42.948639 42.412877 0 1 3e-4,7.6e-4 55.302,55.302 0 0 0 -11.2941,-32.982588 z" /><path
     id="path330-0-5"
     style="display:inline;fill:#999999;fill-opacity:1;stroke:none;stroke-opacity:1"
     d="m 583.12991,259.95366 a 27.379816,42.948732 1.4155134 0 1 12.54801,37.30204 27.379816,42.948732 1.4155134 0 1 -13.90409,36.20861 55.302,55.302 0 0 0 13.40954,11.43502 55.302,55.302 0 0 0 16.41574,6.41699 27.379879,42.94883 60.804351 0 1 2.92118,-7.63667 27.379879,42.94883 60.804351 0 1 22.59872,-21.81417 27.379879,42.94883 60.804351 0 1 38.55978,-6.26814 55.302,55.302 0 0 0 0.76156,-34.32428 42.948639,27.379757 32.325695 0 1 -0.0204,0.003 42.948639,27.379757 32.325695 0 1 -5.46279,1.0412 42.948639,27.379757 32.325695 0 1 -0.68995,0.0536 42.948639,27.379757 32.325695 0 1 -5.32879,0.072 42.948639,27.379757 32.325695 0 1 -1.1463,-0.0739 42.948639,27.379757 32.325695 0 1 -5.27164,-0.72689 42.948639,27.379757 32.325695 0 1 -1.39671,-0.27159 42.948639,27.379757 32.325695 0 1 -5.23787,-1.44876 42.948639,27.379757 32.325695 0 1 -1.52355,-0.48181 42.948639,27.379757 32.325695 0 1 -5.30861,-2.18996 42.948639,27.379757 32.325695 0 1 -1.32937,-0.58182 42.948639,27.379757 32.325695 0 1 -6.37179,-3.53207 42.948639,27.379757 32.325695 0 1 -6.45404,-4.71038 42.948639,27.379757 32.325695 0 1 -1.25149,-1.08836 42.948639,27.379757 32.325695 0 1 -4.69596,-4.47968 42.948639,27.379757 32.325695 0 1 -0.94896,-1.02334 42.948639,27.379757 32.325695 0 1 -10.37686,-18.775 42.948639,27.379757 32.325695 0 1 -10e-4,-0.003 55.302,55.302 0 0 0 -30.49466,16.89625 z" /><path
     id="path330-0-4-9"
     style="display:inline;fill:#999999;fill-opacity:1;stroke:none;stroke-opacity:1"
     d="m 789.47948,261.33951 a 42.948732,27.379816 88.829528 0 1 14.21824,36.6979 42.948732,27.379816 88.829528 0 1 -12.25624,36.79908 55.302,55.302 0 0 0 13.91181,10.81835 55.302,55.302 0 0 0 16.68856,5.6698 27.379879,42.94883 58.218365 0 1 2.57363,-7.76069 27.379879,42.94883 58.218365 0 1 21.5915,-22.8116 27.379879,42.94883 58.218365 0 1 38.23768,-8.00151 55.302,55.302 0 0 0 -0.78787,-34.32369 42.948639,27.379757 29.73971 0 1 -0.0201,0.005 42.948639,27.379757 29.73971 0 1 -5.41024,1.2866 42.948639,27.379757 29.73971 0 1 -0.68683,0.0847 42.948639,27.379757 29.73971 0 1 -5.32012,0.31239 42.948639,27.379757 29.73971 0 1 -1.14846,-0.0221 42.948639,27.379757 29.73971 0 1 -5.29907,-0.48831 42.948639,27.379757 29.73971 0 1 -1.40754,-0.20829 42.948639,27.379757 29.73971 0 1 -5.29791,-1.21096 42.948639,27.379757 29.73971 0 1 -1.54373,-0.41259 42.948639,27.379757 29.73971 0 1 -5.40201,-1.9482 42.948639,27.379757 29.73971 0 1 -1.35427,-0.52125 42.948639,27.379757 29.73971 0 1 -6.52465,-3.24099 42.948639,27.379757 29.73971 0 1 -6.66,-4.41439 42.948639,27.379757 29.73971 0 1 -1.29932,-1.03076 42.948639,27.379757 29.73971 0 1 -4.89329,-4.26326 42.948639,27.379757 29.73971 0 1 -0.99421,-0.97946 42.948639,27.379757 29.73971 0 1 -11.21339,-18.28768 42.948639,27.379757 29.73971 0 1 -10e-4,-0.003 55.302,55.302 0 0 0 -29.70126,18.25493 z" /><path
     id="path330-0-4-0-7"
     style="display:inline;fill:#999999;fill-opacity:1;stroke:none;stroke-opacity:1"
     d="m 1076.1483,246.34334 a 27.379816,42.948732 80.33753 0 1 -34.1961,19.48164 27.379816,42.948732 80.33753 0 1 -38.2055,-6.68776 55.302,55.302 0 0 0 -8.64547,15.35691 55.302,55.302 0 0 0 -3.14314,17.34282 42.94883,27.379879 49.726367 0 1 8.05561,1.39939 42.94883,27.379879 49.726367 0 1 25.7501,17.98611 42.94883,27.379879 49.726367 0 1 13.5604,36.6369 55.302,55.302 0 0 0 33.831,-5.84784 27.379757,42.948639 21.247712 0 1 -0.01,-0.0203 27.379757,42.948639 21.247712 0 1 -2.0711,-5.16105 27.379757,42.948639 21.247712 0 1 -0.1853,-0.6668 27.379757,42.948639 21.247712 0 1 -1.0945,-5.21567 27.379757,42.948639 21.247712 0 1 -0.1476,-1.13917 27.379757,42.948639 21.247712 0 1 -0.2997,-5.31308 27.379757,42.948639 21.247712 0 1 0,-1.42286 27.379757,42.948639 21.247712 0 1 0.4153,-5.41863 27.379757,42.948639 21.247712 0 1 0.1801,-1.58772 27.379757,42.948639 21.247712 0 1 1.1293,-5.63055 27.379757,42.948639 21.247712 0 1 0.3154,-1.41633 27.379757,42.948639 21.247712 0 1 2.2419,-6.93171 27.379757,42.948639 21.247712 0 1 3.3826,-7.23888 27.379757,42.948639 21.247712 0 1 0.8276,-1.43733 27.379757,42.948639 21.247712 0 1 3.4938,-5.46915 27.379757,42.948639 21.247712 0 1 0.8219,-1.1279 27.379757,42.948639 21.247712 0 1 16.4314,-13.79105 27.379757,42.948639 21.247712 0 1 5e-4,6e-4 55.302,55.302 0 0 0 -22.4408,-26.67988 z" /><g
     id="g4597"><rect
       style="display:inline;fill:#999999;fill-opacity:1;stroke:none;stroke-opacity:1"
       id="rect4108-7"
       width="105.5918"
       height="158.83405"
       x="363.82602"
       y="-188.823"
       transform="rotate(90)" /><rect
       style="display:inline;fill:#808080;stroke:none;stroke-width:0.493869"
       id="rect222-12"
       width="10.782956"
       height="157.33115"
       x="-422.0134"
       y="30.740391"
       transform="rotate(-90)" /></g><rect
     style="display:inline;fill:#808080;stroke:none;stroke-width:0.501865"
     id="rect222-12-2"
     width="10.782956"
     height="162.4673"
     x="-273.18445"
     y="-3.7735902e-06"
     transform="rotate(-90)" /><g
     id="g4601"><rect
       style="display:inline;fill:#999999;fill-opacity:1;stroke:none;stroke-opacity:1"
       id="rect4108-7-3-4"
       width="105.5918"
       height="158.83405"
       x="66.168144"
       y="-188.823"
       transform="rotate(90)" /><rect
       style="display:inline;fill:#808080;stroke:none;stroke-width:0.493869"
       id="rect222-12-2-2"
       width="10.782956"
       height="157.33115"
       x="-124.35553"
       y="30.740402"
       transform="rotate(-90)" /></g><g
     id="g4605"><path
       id="rect4037-0"
       style="display:inline;fill:#808080;fill-opacity:1;stroke:none;stroke-width:0.797335;stroke-opacity:1"
       d="m 326.40512,502.57866 a 52.796349,52.892365 0 0 0 52.79687,52.89257 52.796349,52.892365 0 0 0 52.79688,-52.89257 52.796349,52.892365 0 0 0 -0.002,-0.0273 V 343.71732 a 52.796349,52.892365 0 0 0 -52.79493,-52.8926 52.796349,52.892365 0 0 0 -52.79687,52.8926 z" /><rect
       style="fill:#999999;fill-opacity:1;stroke:none;stroke-opacity:1"
       id="rect4363"
       width="105.5938"
       height="158.86134"
       x="326.40506"
       y="343.71732" /></g><g
     id="g4609"><path
       id="rect4037-0-3"
       style="display:inline;fill:#808080;fill-opacity:1;stroke:none;stroke-width:0.797335;stroke-opacity:1"
       d="m 946.07263,495.59145 a 52.892365,52.796349 0 0 0 -52.89257,52.79687 52.892365,52.796349 0 0 0 52.89257,52.79688 52.892365,52.796349 0 0 0 0.0273,-0.002 H 1104.934 a 52.892365,52.796349 0 0 0 52.8926,-52.79493 52.892365,52.796349 0 0 0 -52.8926,-52.79687 z" /><rect
       style="fill:#999999;fill-opacity:1;stroke:none;stroke-opacity:1"
       id="rect4363-5"
       width="105.5938"
       height="158.86134"
       x="495.5914"
       y="-1104.934"
       transform="rotate(90)" /></g></g></svg>
